<?xml version="1.0" encoding="UTF-8"?>
<svg width="90px" height="90px" viewBox="0 0 90 90" version="1.1" xmlns="http://www.w3.org/2000/svg" xmlns:xlink="http://www.w3.org/1999/xlink">
    <!-- Generator: Sketch 49 (51002) - http://www.bohemiancoding.com/sketch -->
    <title>usable</title>
    <desc>Created with Sketch.</desc>
    <defs></defs>
    <g id="Landing-Assets-" stroke="none" stroke-width="1" fill="none" fill-rule="evenodd">
        <g id="icons" transform="translate(-296.000000, -32.000000)">
            <rect id="Rectangle-2-Copy-4" x="296" y="32" width="90" height="90"></rect>
            <g id="usable" transform="translate(299.000000, 35.000000)" stroke="#7F91A7" stroke-width="3.15117498">
                <path d="M41.8828536,25.8580868 C51.1338919,25.8580868 58.6330562,33.3544548 58.6330562,42.6020437 C58.6330562,51.8496327 51.1338919,59.3460007 41.8828536,59.3460007 C32.6318152,59.3460007 25.1326509,51.8496327 25.1326509,42.6020437 C25.1326509,33.3544548 32.6318152,25.8580868 41.8828536,25.8580868 Z M31.0444872,1.23462059 L20.2061207,6.15931383 L22.6388414,17.6702918 C20.4938301,19.3259737 18.5665715,21.2515287 16.9112574,23.3957401 L5.42653019,20.9639266 L0.5,31.7982517 L10.5688424,38.9085238 C10.425973,40.1249231 10.3530604,41.3472319 10.3530604,42.6020437 C10.3530604,43.8598104 10.4249877,45.1067427 10.5688424,46.3260968 L0.5,53.4363689 L5.42653019,64.270694 L16.9112574,61.8388805 C18.5675568,63.9850618 20.4928448,65.907662 22.6388414,67.5643288 L20.2061207,79.0753068 L31.0444872,84 L38.1574114,73.9043789 C39.3782056,74.0481799 40.6236324,74.1200804 41.8828536,74.1200804 C43.1420747,74.1200804 44.3875015,74.0481799 45.6082957,73.9043789 L52.72122,84 L63.5595864,79.0753068 L61.1268658,67.5643288 C63.2738476,65.907662 65.1981503,63.9850618 66.8544498,61.8388805 L78.3391769,64.270694 L83.2657071,53.4363689 L73.1968647,46.3260968 C73.3407194,45.1067427 73.4126468,43.8598104 73.4126468,42.6020437 C73.4126468,41.3472319 73.3397341,40.1249231 73.1968647,38.9085238 L83.2657071,31.7982517 L78.3391769,20.9639266 L66.8544498,23.3957401 C65.1991356,21.2515287 63.271877,19.3259737 61.1268658,17.6702918 L63.5595864,6.15931383 L52.72122,1.23462059 L45.6082957,11.3302417 C44.3875015,11.1864407 43.1420747,11.0840071 41.8828536,11.0840071 C40.6236324,11.0840071 39.3782056,11.1864407 38.1574114,11.3302417 L31.0444872,1.23462059 Z" id="Page-1"></path>
            </g>
        </g>
    </g>
</svg>