<?xml version="1.0" encoding="UTF-8"?>
<svg width="90px" height="90px" viewBox="0 0 90 90" version="1.1" xmlns="http://www.w3.org/2000/svg" xmlns:xlink="http://www.w3.org/1999/xlink">
    <!-- Generator: Sketch 49 (51002) - http://www.bohemiancoding.com/sketch -->
    <title>flexible</title>
    <desc>Created with Sketch.</desc>
    <defs></defs>
    <g id="Landing-Assets-" stroke="none" stroke-width="1" fill="none" fill-rule="evenodd">
        <g id="icons" transform="translate(-163.000000, -32.000000)">
            <rect id="Rectangle-2-Copy-3" x="163" y="32" width="90" height="90"></rect>
            <g id="flexible" transform="translate(168.000000, 37.000000)" stroke="#7F91A7" stroke-width="3">
                <g id="Page-1">
                    <polygon id="Stroke-1" points="47.0186462 16.7543385 63.3318769 0.439876923 79.6432615 16.7481846 63.3275692 33.0608 57.5121846 27.2478769 50.5435692 34.2195692 56.3558769 40.0343385 40.0414154 56.3481846 34.2284923 50.5364923 27.2438769 57.5180308 33.0574154 63.3291077 16.7435692 79.6454154 0.435261538 63.3371077 16.7491077 47.0232615 22.5515692 52.8226462 29.5343385 45.8411077 23.7331077 40.0374154 40.0457231 23.7260308 45.8488 29.5278769 52.8204923 22.5568"></polygon>
                    <path d="M63.3196923,79.6263385 L47.0101538,63.3186462 L63.3252308,47.0048 L79.6353846,63.3118769 L63.3196923,79.6263385 Z M16.7504615,33.0583385 L0.442153846,16.7481846 L16.756,0.434953846 L33.0643077,16.7438769 L16.7504615,33.0583385 Z" id="Stroke-3"></path>
                </g>
            </g>
        </g>
    </g>
</svg>