<?xml version="1.0" encoding="UTF-8"?>
<svg width="90px" height="90px" viewBox="0 0 90 90" version="1.1" xmlns="http://www.w3.org/2000/svg" xmlns:xlink="http://www.w3.org/1999/xlink">
    <!-- Generator: Sketch 49 (51002) - http://www.bohemiancoding.com/sketch -->
    <title>broad_distribution</title>
    <desc>Created with Sketch.</desc>
    <defs></defs>
    <g id="Landing-Assets-" stroke="none" stroke-width="1" fill="none" fill-rule="evenodd">
        <g id="icons" transform="translate(-163.000000, -165.000000)">
            <path d="M228.472094,220.175316 L242.370646,212.249194 L242.370646,228.101438 L228.472094,220.175316 Z M227.157312,222.424458 L241.05597,230.35058 L227.157312,238.276805 L227.157312,222.424458 Z M209.314729,232.59993 L223.213282,240.526051 L209.314729,248.452069 L209.314729,232.59993 Z M206.685376,232.59993 L206.685376,248.452069 L192.786718,240.526051 L206.685376,232.59993 Z M188.842688,222.424458 L188.842688,238.276805 L174.94403,230.35058 L188.842688,222.424458 Z M173.629354,212.249194 L187.527906,220.175316 L173.629354,228.101438 L173.629354,212.249194 Z M187.638549,199.887639 L173.629354,207.876716 L173.629354,191.898458 L187.638549,199.887639 Z M188.842688,197.575334 L174.94403,189.649213 L188.842688,181.722987 L188.842688,197.575334 Z M206.685376,187.526085 L192.676075,179.536904 L206.685376,171.547723 L206.685376,187.526085 Z M209.314729,187.526085 L209.314729,171.547723 L223.323925,179.536904 L209.314729,187.526085 Z M227.157312,197.575438 L227.157312,181.722987 L241.05597,189.649213 L227.157312,197.575438 Z M242.370646,207.876716 L228.361451,199.887639 L242.370646,191.898458 L242.370646,207.876716 Z M227.157312,202.19984 L240.945642,210.063007 L227.157312,217.926174 L227.157312,202.19984 Z M224.527959,222.424458 L224.527959,238.276805 L210.629406,230.350684 L224.527959,222.424458 Z M205.370699,230.350684 L191.472041,238.276805 L191.472041,222.424458 L205.370699,230.350684 Z M188.842688,217.926174 L175.054463,210.063007 L188.842688,202.19984 L188.842688,217.926174 Z M191.472041,197.701453 L191.472041,181.849105 L205.370699,189.775331 L191.472041,197.701453 Z M210.629406,189.775331 L224.527959,181.849105 L224.527959,197.701453 L210.629406,189.775331 Z M210.629406,209.999948 L224.527959,202.073722 L224.527959,217.92607 L210.629406,209.999948 Z M209.314729,212.24909 L223.213492,220.175316 L209.314729,228.101542 L209.314729,212.24909 Z M206.685376,212.24909 L206.685376,228.101542 L192.786508,220.175316 L206.685376,212.24909 Z M205.370699,209.999948 L191.472041,217.92607 L191.472041,202.073722 L205.370699,209.999948 Z M209.314729,192.024473 L223.102849,199.887639 L209.314729,207.750702 L209.314729,192.024473 Z M206.685376,207.750702 L192.897151,199.887639 L206.685376,192.024473 L206.685376,207.750702 Z M245,189.649213 C245,189.645369 244.999369,189.641525 244.999369,189.637681 C244.998948,189.584907 244.995583,189.532132 244.988641,189.479358 C244.988115,189.475618 244.987169,189.472086 244.986643,189.468346 C244.980017,189.421286 244.970131,189.374433 244.958036,189.327684 C244.954775,189.314594 244.950884,189.301816 244.947203,189.28883 C244.936054,189.25112 244.923118,189.213824 244.908288,189.176737 C244.90324,189.163959 244.898717,189.150973 244.893143,189.138403 C244.87295,189.091965 244.850758,189.046048 244.824464,189.001169 C244.824149,189.000442 244.823728,188.99961 244.823202,188.998883 C244.797014,188.954004 244.767775,188.91193 244.737065,188.871415 C244.728756,188.860403 244.719816,188.850118 244.711192,188.839417 C244.686055,188.808148 244.659656,188.778332 244.631996,188.749867 C244.62274,188.74031 244.613485,188.730752 244.603704,188.721506 C244.568576,188.687328 244.531975,188.655123 244.493587,188.625619 C244.491062,188.623645 244.488748,188.621464 244.486224,188.61949 C244.443208,188.586973 244.398299,188.557574 244.351812,188.530771 C244.348657,188.528901 244.345922,188.526511 244.342662,188.524641 L208.657391,168.173906 C208.654025,168.171932 208.650449,168.170789 208.647084,168.168919 C208.600597,168.142844 208.552532,168.119054 208.50268,168.098692 C208.499314,168.097342 208.495843,168.096303 208.492583,168.095056 C208.447674,168.077084 208.401607,168.06202 208.354489,168.049034 C208.341343,168.045398 208.328196,168.042178 208.314944,168.038957 C208.276345,168.029608 208.23701,168.022024 208.197254,168.016102 C208.183476,168.014025 208.169909,168.011428 208.156026,168.009869 C208.105437,168.003948 208.054007,168.000104 208.001841,168 L207.998159,168 C207.945993,168.000104 207.894668,168.003948 207.843974,168.009869 C207.830091,168.011428 207.816524,168.014025 207.802851,168.016102 C207.76299,168.022024 207.72376,168.029608 207.685056,168.038957 C207.671804,168.042178 207.658657,168.045398 207.645511,168.049034 C207.598393,168.06202 207.552221,168.077084 207.507417,168.095056 C207.504157,168.096303 207.500686,168.097342 207.49732,168.098692 C207.447573,168.119054 207.399508,168.142844 207.352916,168.168919 C207.349551,168.170789 207.345975,168.171932 207.342714,168.173906 L171.657338,188.524641 C171.653973,188.526511 171.651238,188.528901 171.647978,188.530771 C171.601701,188.557677 171.556792,188.586973 171.513776,188.61949 C171.511252,188.621464 171.509148,188.623541 171.506624,188.625515 C171.468025,188.655123 171.431424,188.687432 171.396086,188.721506 C171.38662,188.730752 171.37747,188.740206 171.368215,188.749763 C171.340344,188.778228 171.313945,188.808252 171.288598,188.839729 C171.280079,188.850222 171.271244,188.860403 171.263041,188.871311 C171.23233,188.91193 171.203091,188.954004 171.176693,188.998883 C171.176272,188.99961 171.175956,189.000442 171.175536,189.001169 C171.149347,189.046048 171.12705,189.091965 171.106857,189.138403 C171.101388,189.150973 171.096865,189.163959 171.091712,189.176737 C171.076882,189.213824 171.063946,189.25112 171.052903,189.28883 C171.049221,189.301816 171.045225,189.314594 171.041964,189.327684 C171.029869,189.374433 171.019983,189.421286 171.013357,189.468346 C171.012831,189.472086 171.011885,189.475618 171.011359,189.479358 C171.004417,189.532132 171.001052,189.584907 171.000736,189.637681 C171.000736,189.641525 171,189.645369 171,189.649213 L171,230.35058 C171,230.354424 171.000736,230.358371 171.000736,230.362215 C171.001052,230.414885 171.004417,230.46766 171.011359,230.520434 C171.011885,230.52407 171.012831,230.527706 171.013357,230.531446 C171.019983,230.578611 171.029869,230.625463 171.041964,230.672108 C171.045225,230.685198 171.049221,230.697976 171.052903,230.710962 C171.063946,230.748673 171.076882,230.786072 171.091712,230.823159 C171.096865,230.835937 171.101388,230.848715 171.106857,230.861389 C171.12705,230.907827 171.149347,230.953848 171.175536,230.998727 C171.204669,231.048801 171.237483,231.096796 171.273137,231.142714 C171.292384,231.167439 171.313945,231.189255 171.334664,231.21211 C171.352018,231.231537 171.368215,231.251795 171.38662,231.270183 C171.413965,231.296985 171.443414,231.320672 171.472653,231.344877 C171.487377,231.357032 171.500839,231.370433 171.5163,231.381965 C171.54964,231.407105 171.584979,231.429025 171.620422,231.450841 C171.633043,231.458529 171.644402,231.467775 171.657338,231.475151 L171.664595,231.47941 C171.666068,231.480137 171.66733,231.480968 171.668802,231.481799 L207.342714,251.825886 C207.345975,251.82786 207.349656,251.829107 207.352916,251.830977 C207.399613,251.857052 207.447573,251.880738 207.49732,251.901204 C207.500686,251.902451 207.504157,251.903386 207.507417,251.90484 C207.552221,251.922708 207.598498,251.937772 207.645616,251.950862 C207.658657,251.954394 207.671699,251.957614 207.684846,251.960835 C207.72376,251.970288 207.7632,251.977872 207.803167,251.983794 C207.816734,251.985768 207.830091,251.988365 207.843659,251.989923 C207.895089,251.995948 207.947045,252 208.000053,252 C208.052955,252 208.105016,251.995948 208.156341,251.989923 C208.169909,251.988365 208.183266,251.985768 208.196833,251.983794 C208.23701,251.977872 208.276345,251.970288 208.315154,251.960835 C208.328301,251.957614 208.341343,251.954394 208.354384,251.950862 C208.401502,251.937772 208.447674,251.922708 208.492583,251.90484 C208.495843,251.903386 208.499419,251.902451 208.50268,251.901204 C208.552532,251.880738 208.600492,251.857052 208.647084,251.830977 C208.650344,251.829107 208.654025,251.82786 208.657391,251.825886 L244.331303,231.481696 C244.33267,231.480968 244.333932,231.480137 244.335194,231.479514 L244.342662,231.475151 C244.355914,231.467567 244.367693,231.458113 244.380629,231.450114 C244.415652,231.42861 244.450675,231.406897 244.483595,231.381965 C244.499266,231.370225 244.513044,231.35672 244.527978,231.344358 C244.557007,231.320256 244.586245,231.296778 244.613275,231.270183 C244.631785,231.251795 244.648087,231.231433 244.665546,231.21211 C244.686055,231.189151 244.707721,231.167335 244.726863,231.142714 C244.762727,231.096796 244.795331,231.048801 244.824464,230.998727 C244.850758,230.953848 244.87295,230.907827 244.893143,230.861389 C244.898717,230.848715 244.90324,230.835937 244.908288,230.823159 C244.923118,230.786072 244.936054,230.748673 244.947203,230.710962 C244.950884,230.697976 244.954775,230.685198 244.958036,230.672108 C244.970131,230.625463 244.980017,230.578611 244.986643,230.531446 C244.987169,230.527706 244.988115,230.52407 244.988641,230.520434 C244.995583,230.46766 244.998948,230.414885 244.999369,230.362215 C244.999369,230.358371 245,230.354424 245,230.35058 L245,189.649213 Z" id="Fill-1" fill="#7F91A7"></path>
            <rect id="Rectangle-2-Copy-6" x="163" y="165" width="90" height="90"></rect>
        </g>
    </g>
</svg>