<?xml version="1.0" encoding="UTF-8"?>
<svg width="90px" height="90px" viewBox="0 0 90 90" version="1.1" xmlns="http://www.w3.org/2000/svg" xmlns:xlink="http://www.w3.org/1999/xlink">
    <!-- Generator: Sketch 49 (51002) - http://www.bohemiancoding.com/sketch -->
    <title>transparency</title>
    <desc>Created with Sketch.</desc>
    <defs></defs>
    <g id="Landing-Assets-" stroke="none" stroke-width="1" fill="none" fill-rule="evenodd">
        <g id="icons" transform="translate(-296.000000, -165.000000)">
            <g id="icon-transparency" transform="translate(300.000000, 170.000000)">
                <path d="M73.4171117,25.2061174 C75.3507097,29.6646854 76.426799,34.5772111 76.426799,39.7388785 C76.426799,59.9682742 59.9705806,76.4238596 39.7449926,76.4238596 C19.5148189,76.4238596 3.05707196,59.9682742 3.05707196,39.7388785 C3.05707196,19.5140683 19.5148189,3.06001134 39.7449926,3.06001134 C51.2915533,3.06001134 61.6045856,8.42955172 68.3347295,16.7964359 L70.5113648,14.6198843 C63.2171911,5.70427688 52.1353052,0 39.7449926,0 C17.8303722,0 0,17.828158 0,39.7388785 C0,61.655713 17.8303722,79.483871 39.7449926,79.483871 C61.6565558,79.483871 79.483871,61.655713 79.483871,39.7388785 C79.483871,33.7212638 78.1311166,28.01393 75.7267295,22.8981168 L73.4171117,25.2061174 Z" id="Fill-1" fill="#7F91A7"></path>
                <path d="M73.4171117,25.2061174 C75.3507097,29.6646854 76.426799,34.5772111 76.426799,39.7388785 C76.426799,59.9682742 59.9705806,76.4238596 39.7449926,76.4238596 C19.5148189,76.4238596 3.05707196,59.9682742 3.05707196,39.7388785 C3.05707196,19.5140683 19.5148189,3.06001134 39.7449926,3.06001134 C51.2915533,3.06001134 61.6045856,8.42955172 68.3347295,16.7964359 L70.5113648,14.6198843 C63.2171911,5.70427688 52.1353052,0 39.7449926,0 C17.8303722,0 0,17.828158 0,39.7388785 C0,61.655713 17.8303722,79.483871 39.7449926,79.483871 C61.6565558,79.483871 79.483871,61.655713 79.483871,39.7388785 C79.483871,33.7212638 78.1311166,28.01393 75.7267295,22.8981168 L73.4171117,25.2061174 Z" id="Stroke-3" stroke="#7F91A7" stroke-width="0.5"></path>
                <path d="M81.6898461,9.72027209 C81.1000383,9.12406701 80.1466916,9.12406701 79.5568837,9.72027209 L72.3479535,16.9842401 L70.1772796,19.1713393 L70.0762128,19.0116415 L39.7018629,49.6219054 L37.5658836,47.4713085 L23.7710172,33.5760799 C23.2943439,33.0924237 22.5838592,33.02094 22.0136613,33.3236053 L21.6380548,33.5760799 C21.048247,34.1677222 21.048247,35.1289508 21.6380548,35.7251559 L37.6020866,51.8120465 L37.4346476,51.9017814 L39.830082,54.3139785 L71.8833479,22.01396 L71.7898233,21.8466575 L73.9982087,19.621535 L81.6898461,11.869348 C82.2811624,11.2746639 82.2811624,10.3164772 81.6898461,9.72027209" id="Fill-5" fill="#7F91A7"></path>
                <path d="M81.6898461,9.72027209 C81.1000383,9.12406701 80.1466916,9.12406701 79.5568837,9.72027209 L72.3479535,16.9842401 L70.1772796,19.1713393 L70.0762128,19.0116415 L39.7018629,49.6219054 L37.5658836,47.4713085 L23.7710172,33.5760799 C23.2943439,33.0924237 22.5838592,33.02094 22.0136613,33.3236053 L21.6380548,33.5760799 C21.048247,34.1677222 21.048247,35.1289508 21.6380548,35.7251559 L37.6020866,51.8120465 L37.4346476,51.9017814 L39.830082,54.3139785 L71.8833479,22.01396 L71.7898233,21.8466575 L73.9982087,19.621535 L81.6898461,11.869348 C82.2811624,11.2746639 82.2811624,10.3164772 81.6898461,9.72027209 Z" id="Stroke-7" stroke="#7F91A7" stroke-width="0.5"></path>
            </g>
            <rect id="Rectangle-2" x="296" y="165" width="90" height="90"></rect>
        </g>
    </g>
</svg>